<svg width="3130" height="850" viewBox="0 0 3130 850" fill="none" xmlns="http://www.w3.org/2000/svg">
<path d="M394.125 775L320.375 850L0.375 530L320.375 210L394.125 285.625L149.75 530L394.125 775ZM1189.12 424.375C1189.12 479.792 1183.5 532.708 1172.25 583.125C1161.42 633.542 1143.29 678.125 1117.88 716.875C1092.88 755.625 1060.38 786.667 1020.38 810C980.792 832.917 932.458 844.375 875.375 844.375C818.292 844.375 769.958 832.708 730.375 809.375C690.792 785.625 658.292 754.375 632.875 715.625C607.875 676.875 589.75 632.083 578.5 581.25C567.667 530.417 562.25 477.708 562.25 423.125C562.25 368.542 567.667 315.833 578.5 265C589.75 214.167 607.875 169.167 632.875 130C658.292 90.8333 690.792 59.5833 730.375 36.25C769.958 12.5 818.292 0.625 875.375 0.625C891.625 0.625 908.292 2.91667 925.375 7.5C942.458 12.0833 958.708 19.1667 974.125 28.75C989.542 37.9167 1003.08 49.375 1014.75 63.125C1026.83 76.875 1035.38 92.7083 1040.38 110.625V14.375H1157.25V303.75H1040.38C1040.38 278.333 1036.42 254.375 1028.5 231.875C1020.58 208.958 1009.33 188.958 994.75 171.875C980.167 154.792 962.667 141.458 942.25 131.875C921.833 121.875 899.542 116.875 875.375 116.875C838.708 116.875 808.708 126.042 785.375 144.375C762.042 162.708 743.292 186.458 729.125 215.625C714.958 244.792 704.958 277.5 699.125 313.75C693.708 350 691 386.458 691 423.125C691 459.792 693.708 496.25 699.125 532.5C704.958 568.75 714.75 601.458 728.5 630.625C742.25 659.375 761 682.708 784.75 700.625C808.5 718.542 838.708 727.5 875.375 727.5C928.292 727.5 971 710.625 1003.5 676.875C1036 643.125 1058.29 590.833 1070.38 520H898.5V403.75H1189.12V424.375ZM1825.38 830H1696V278.125L1614.12 571.25H1514.12L1433.5 278.125V830H1304.12V14.375H1457.88L1564.12 383.125L1670.38 14.375H1825.38V830ZM2553.5 311.875H2437.88V131.25H2327.88V713.75H2457.25V830H2069.75V713.75H2198.5V131.25H2087.25V311.875H1972.25V14.375H2553.5V311.875ZM2979.75 530L2734.75 285.625L2809.12 210L3129.12 530L2809.12 850L2734.75 775L2979.75 530Z" fill="#CF3333"/>
</svg>
