<svg width="1754" height="393" viewBox="0 0 1754 393" fill="none" xmlns="http://www.w3.org/2000/svg">
<path d="M1316.61 100.232L1314.9 151.897C1254.58 147.762 1237.34 163.266 1237.34 213.895V220.427H1185.65V103.331H1237.34V136.741C1252.86 109.533 1273.88 97.1336 1316.61 100.232ZM86.168 310.339H137.865V110.558H86.168V310.333V310.339ZM342.252 100.58C306.061 100.58 284.005 116.767 272.285 134.674V24.4571H0V72.6765H224.033V220.427H273.316C273.316 178.063 297.792 148.11 327.776 148.11C353.63 148.11 365.344 160.851 365.344 206.661V310.339H417.042V188.065C417.042 129.513 387.058 100.58 342.252 100.58ZM545.602 270.72C514.24 270.72 493.904 251.776 490.459 220.433H441.859C446.683 275.544 482.873 314.468 545.26 314.468C593.512 314.468 620.739 292.768 634.873 260.046L591.097 240.755C584.548 260.388 572.487 270.72 545.602 270.72ZM543.534 101.605C525.08 101.197 506.823 105.462 490.459 114.004L515.271 149.135C524.576 144.316 534.577 141.901 545.26 142.243C574.212 142.243 589.03 161.193 591.097 185.986H541.12V220.433H639.697C640.386 215.267 640.733 210.443 640.733 205.283C641.075 130.191 591.445 101.605 543.534 101.605V101.605ZM1055.36 270.72C1024 270.72 1003.66 251.776 1000.22 220.433H951.618C956.442 275.544 992.632 314.468 1055.02 314.468C1103.27 314.468 1130.5 292.768 1144.63 260.046L1100.86 240.755C1093.97 260.388 1081.9 270.72 1055.36 270.72ZM1053.64 101.605C1035.18 101.196 1016.92 105.462 1000.56 114.004L1025.38 149.135C1034.68 144.316 1044.68 141.901 1055.36 142.243C1084.31 142.243 1099.14 161.193 1101.2 185.986H1051.23V220.433H1149.8C1150.49 215.267 1150.83 210.443 1150.83 205.283C1151.18 130.191 1101.55 101.605 1053.64 101.605V101.605ZM1659.56 270.72C1628.19 270.72 1607.86 251.776 1604.41 220.433H1555.81C1560.64 275.544 1596.83 314.468 1659.21 314.468C1707.47 314.468 1734.69 292.768 1748.83 260.046L1705.05 240.755C1698.16 260.388 1686.1 270.72 1659.56 270.72ZM1656.8 101.605C1638.35 101.197 1620.09 105.462 1603.72 114.004L1628.54 149.135C1637.85 144.316 1647.84 141.901 1658.52 142.243C1687.48 142.243 1702.3 161.193 1704.36 185.986H1654.39V220.433H1752.96C1753.65 215.267 1754 210.443 1754 205.283C1754.34 130.191 1704.71 101.605 1656.8 101.605V101.605ZM667.271 0L760.256 220.427H816.782L745.854 45.121H837.534V0.347435L667.271 0.00569575V0ZM943.002 0.341739L836.498 270.037L820.643 310.339H874.755L1002.63 0.347435H943.002V0.341739ZM1418.3 305.515C1440.35 305.515 1458.62 299.312 1471.37 288.639L1450.69 255.917C1444.14 258.674 1436.91 259.705 1429.67 259.705C1401.4 259.705 1385.2 242.828 1379.69 220.439H1329.02C1335.92 268.316 1370.39 305.515 1418.3 305.515V305.515ZM1482.05 132.264C1470.34 113.668 1446.55 100.232 1413.47 100.232C1381.07 99.8903 1351.09 117.456 1335.23 146.042L1378.31 173.598C1386.24 157.063 1401.75 146.042 1425.53 146.042C1459.31 146.042 1482.05 172.219 1482.05 203.215C1482.05 209.076 1481.37 214.931 1479.65 220.439H1533.76V103.678H1482.05V132.264ZM1432.08 352.356C1398.65 352.356 1386.24 336.169 1383.82 317.225H1334.54C1335.57 353.392 1359.7 393 1433.11 393C1482.74 393 1515.14 368.201 1528.59 331.003L1482.05 314.816C1475.51 338.925 1457.58 352.356 1432.08 352.356V352.356Z" fill="black"/>
</svg>
