<svg xmlns="http://www.w3.org/2000/svg" width="46" height="45" viewBox="0 0 46 45" fill="none">
<path d="M45.5385 16.1975C45.5385 16.8758 45.2718 17.5263 44.7971 18.0059C44.3224 18.4856 43.6786 18.755 43.0073 18.755H40.4762V21.3125C40.4762 21.9908 40.2095 22.6413 39.7348 23.1209C39.2601 23.6006 38.6163 23.87 37.945 23.87C37.2737 23.87 36.6299 23.6006 36.1552 23.1209C35.6806 22.6413 35.4139 21.9908 35.4139 21.3125V18.755H32.8827C32.2114 18.755 31.5676 18.4856 31.093 18.0059C30.6183 17.5263 30.3516 16.8758 30.3516 16.1975C30.3516 15.5192 30.6183 14.8687 31.093 14.3891C31.5676 13.9095 32.2114 13.64 32.8827 13.64H35.4139V11.0825C35.4139 10.4042 35.6806 9.7537 36.1552 9.27408C36.6299 8.79445 37.2737 8.52501 37.945 8.52501C38.6163 8.52501 39.2601 8.79445 39.7348 9.27408C40.2095 9.7537 40.4762 10.4042 40.4762 11.0825V13.64H43.0073C43.6786 13.64 44.3224 13.9095 44.7971 14.3891C45.2718 14.8687 45.5385 15.5192 45.5385 16.1975ZM24.4456 8.52501H25.2893V9.37751C25.2893 10.0558 25.556 10.7063 26.0307 11.1859C26.5054 11.6656 27.1492 11.935 27.8205 11.935C28.4918 11.935 29.1356 11.6656 29.6103 11.1859C30.0849 10.7063 30.3516 10.0558 30.3516 9.37751V8.52501H31.1953C31.8666 8.52501 32.5104 8.25555 32.9851 7.77593C33.4598 7.29631 33.7265 6.6458 33.7265 5.9675C33.7265 5.28921 33.4598 4.6387 32.9851 4.15908C32.5104 3.67945 31.8666 3.41 31.1953 3.41H30.3516V2.5575C30.3516 1.87921 30.0849 1.2287 29.6103 0.749075C29.1356 0.26945 28.4918 0 27.8205 0C27.1492 0 26.5054 0.26945 26.0307 0.749075C25.556 1.2287 25.2893 1.87921 25.2893 2.5575V3.41H24.4456C23.7743 3.41 23.1305 3.67945 22.6558 4.15908C22.1811 4.6387 21.9145 5.28921 21.9145 5.9675C21.9145 6.6458 22.1811 7.29631 22.6558 7.77593C23.1305 8.25555 23.7743 8.52501 24.4456 8.52501ZM40.4361 27.7873C40.7293 28.1312 40.9266 28.5478 41.0078 28.9942C41.089 29.4407 41.0511 29.9009 40.898 30.3277C39.6791 33.6888 37.642 36.6856 34.9746 39.0415C32.3073 41.3974 29.0956 43.0365 25.636 43.8075C22.1763 44.5785 18.5802 44.4566 15.1795 43.453C11.7788 42.4495 8.68307 40.5966 6.17795 38.0654C3.67283 35.5342 1.83906 32.4062 0.845852 28.9701C-0.147355 25.534 -0.267993 21.9004 0.49507 18.4048C1.25813 14.9091 2.88031 11.664 5.21191 8.96883C7.54351 6.27367 10.5094 4.21533 13.8359 2.98375C14.2577 2.82805 14.7128 2.78852 15.1547 2.86921C15.5966 2.9499 16.0092 3.14791 16.3504 3.44293C16.6915 3.73795 16.9489 4.11935 17.096 4.54802C17.2431 4.97668 17.2747 5.43717 17.1876 5.88225C16.9642 7.03364 16.8518 8.2042 16.8522 9.37751C16.8572 14.124 18.7255 18.6746 22.0472 22.0309C25.3689 25.3872 29.8726 27.2749 34.5702 27.28C35.7293 27.2798 36.8856 27.1663 38.0231 26.9411C38.4634 26.8533 38.9189 26.8854 39.343 27.0341C39.767 27.1828 40.1443 27.4427 40.4361 27.7873ZM34.1483 32.395C28.2545 32.2788 22.6341 29.8614 18.4658 25.6496C14.2974 21.4379 11.9049 15.7589 11.7899 9.80376C9.89292 11.1699 8.31343 12.9374 7.16137 14.9832C6.00931 17.029 5.31236 19.3039 5.11905 21.6496C4.92575 23.9952 5.24072 26.3553 6.04204 28.5654C6.84337 30.7756 8.11179 32.7827 9.75901 34.4471C11.4062 36.1114 13.3927 37.3931 15.58 38.2027C17.7674 39.0124 20.1031 39.3307 22.4246 39.1353C24.7461 38.94 26.9975 38.2358 29.0222 37.0717C31.0469 35.9077 32.7962 34.3117 34.1483 32.395Z" fill="white"/>
</svg>
