<svg width="55" height="40" viewBox="0 0 55 40" fill="none" xmlns="http://www.w3.org/2000/svg">
<path d="M54.1538 28.6437C54.1538 29.1185 53.9637 29.5738 53.6251 29.9095C53.2866 30.2452 52.8275 30.4338 52.3487 30.4338H1.80513C1.32638 30.4338 0.867237 30.2452 0.52871 29.9095C0.190183 29.5738 0 29.1185 0 28.6437C0 28.1689 0.190183 27.7136 0.52871 27.3778C0.867237 27.0421 1.32638 26.8535 1.80513 26.8535H10.9323C10.8657 26.2591 10.8318 25.6615 10.8308 25.0634C10.8308 20.7903 12.5424 16.6923 15.5892 13.6709C18.6359 10.6494 22.7682 8.95194 27.0769 8.95194C31.3857 8.95194 35.5179 10.6494 38.5647 13.6709C41.6114 16.6923 43.3231 20.7903 43.3231 25.0634C43.3221 25.6615 43.2882 26.2591 43.2215 26.8535H52.3487C52.8275 26.8535 53.2866 27.0421 53.6251 27.3778C53.9637 27.7136 54.1538 28.1689 54.1538 28.6437ZM45.1282 35.8043H9.02564C8.54689 35.8043 8.08775 35.9929 7.74922 36.3286C7.4107 36.6643 7.22051 37.1197 7.22051 37.5945C7.22051 38.0692 7.4107 38.5246 7.74922 38.8603C8.08775 39.196 8.54689 39.3846 9.02564 39.3846H45.1282C45.607 39.3846 46.0661 39.196 46.4046 38.8603C46.7431 38.5246 46.9333 38.0692 46.9333 37.5945C46.9333 37.1197 46.7431 36.6643 46.4046 36.3286C46.0661 35.9929 45.607 35.8043 45.1282 35.8043ZM16.4357 6.17272C16.5418 6.38312 16.6886 6.57074 16.8678 6.72487C17.047 6.879 17.2551 6.99661 17.4801 7.071C17.7051 7.14539 17.9427 7.1751 18.1793 7.15842C18.4159 7.14174 18.6469 7.07901 18.8591 6.97381C19.0712 6.86861 19.2604 6.723 19.4158 6.54529C19.5713 6.36758 19.6899 6.16125 19.7649 5.93808C19.8399 5.71492 19.8698 5.47928 19.853 5.24464C19.8362 5.00999 19.773 4.78093 19.6669 4.57053L17.8617 0.99021C17.6475 0.565282 17.2718 0.24216 16.8174 0.0919255C16.3629 -0.0583091 15.8668 -0.0233493 15.4384 0.189115C15.0099 0.401578 14.6841 0.774142 14.5326 1.22485C14.3811 1.67555 14.4163 2.16747 14.6306 2.5924L16.4357 6.17272ZM2.80246 15.9246L6.41272 17.7148C6.8409 17.9272 7.33665 17.9623 7.79091 17.8123C8.24517 17.6623 8.62073 17.3394 8.83497 16.9148C9.04921 16.4902 9.08459 15.9985 8.93331 15.548C8.78203 15.0975 8.45649 14.7251 8.02831 14.5126L4.41805 12.7225C4.20604 12.6173 3.9752 12.5545 3.73873 12.5378C3.50226 12.521 3.26478 12.5507 3.03986 12.6249C2.81493 12.6992 2.60696 12.8167 2.42782 12.9707C2.24868 13.1247 2.10188 13.3122 1.99579 13.5224C1.88971 13.7327 1.82643 13.9616 1.80956 14.1961C1.79269 14.4306 1.82256 14.6661 1.89746 14.8892C1.97237 15.1123 2.09084 15.3185 2.24612 15.4962C2.4014 15.6738 2.59045 15.8194 2.80246 15.9246ZM46.9333 17.9027C47.2129 17.9028 47.4887 17.8384 47.7389 17.7148L51.3491 15.9246C51.5611 15.8194 51.7502 15.6738 51.9055 15.4962C52.0607 15.3185 52.1792 15.1123 52.2541 14.8892C52.329 14.6661 52.3589 14.4306 52.342 14.1961C52.3252 13.9616 52.2619 13.7327 52.1558 13.5224C52.0497 13.3122 51.9029 13.1247 51.7238 12.9707C51.5446 12.8167 51.3367 12.6992 51.1117 12.6249C50.8868 12.5507 50.6493 12.521 50.4129 12.5378C50.1764 12.5545 49.9456 12.6173 49.7335 12.7225L46.1233 14.5126C45.76 14.6934 45.4689 14.9905 45.2971 15.3558C45.1253 15.721 45.0828 16.1331 45.1765 16.5253C45.2702 16.9175 45.4947 17.2669 45.8135 17.5169C46.1323 17.7668 46.5269 17.9028 46.9333 17.9027ZM35.2948 6.97381C35.5069 7.07917 35.7379 7.14202 35.9745 7.15877C36.2112 7.17553 36.4488 7.14586 36.6739 7.07145C36.899 6.99705 37.1071 6.87938 37.2862 6.72517C37.4654 6.57095 37.6122 6.38323 37.7182 6.17272L39.5233 2.5924C39.7375 2.16747 39.7728 1.67555 39.6213 1.22485C39.4698 0.774142 39.144 0.401578 38.7155 0.189115C38.287 -0.0233492 37.791 -0.0583091 37.3365 0.0919255C36.882 0.24216 36.5063 0.565282 36.2921 0.99021L34.487 4.57053C34.3807 4.7809 34.3174 5.00998 34.3005 5.24466C34.2836 5.47934 34.3135 5.71503 34.3885 5.93823C34.4635 6.16144 34.5822 6.36779 34.7377 6.54548C34.8932 6.72318 35.0825 6.86873 35.2948 6.97381Z" fill="#FFD037"/>
</svg>
