<svg width="14" height="14" viewBox="0 0 14 14" fill="none" xmlns="http://www.w3.org/2000/svg">
<path d="M10.467 0.000658823C10.3044 0.0077241 10.1493 0.0712854 10.0286 0.18038C9.90784 0.289475 9.82896 0.437262 9.80557 0.598254L9.20418 4.20565H5.72828L6.29144 0.827468C6.31017 0.723926 6.30525 0.617494 6.27706 0.516116C6.24887 0.414738 6.19813 0.321034 6.12862 0.241998C6.05912 0.162962 5.97265 0.100637 5.87567 0.0596744C5.77869 0.0187119 5.6737 0.000170369 5.56854 0.00543412C5.40758 0.0135318 5.25435 0.0769639 5.13481 0.184993C5.01527 0.293023 4.93675 0.439013 4.91254 0.598254L4.31115 4.20565H1.40796C1.31534 4.20434 1.22338 4.22144 1.13742 4.25596C1.05146 4.29048 0.973231 4.34173 0.907266 4.40672C0.841301 4.47172 0.788921 4.54917 0.753168 4.63458C0.717416 4.71998 0.699005 4.81163 0.699005 4.90421C0.699005 4.99679 0.717416 5.08844 0.753168 5.17384C0.788921 5.25925 0.841301 5.3367 0.907266 5.4017C0.973231 5.46669 1.05146 5.51794 1.13742 5.55246C1.22338 5.58698 1.31534 5.60408 1.40796 5.60277H4.0777L3.61215 8.397H0.70896C0.616334 8.39569 0.524371 8.41279 0.438415 8.44731C0.35246 8.48183 0.274226 8.53308 0.208262 8.59807C0.142297 8.66307 0.0899162 8.74052 0.0541637 8.82592C0.0184112 8.91133 0 9.00298 0 9.09556C0 9.18814 0.0184112 9.27979 0.0541637 9.36519C0.0899162 9.4506 0.142297 9.52805 0.208262 9.59304C0.274226 9.65804 0.35246 9.70929 0.438415 9.74381C0.524371 9.77833 0.616334 9.79543 0.70896 9.79412H3.37869L2.81553 13.1723C2.79834 13.2637 2.79958 13.3576 2.81917 13.4485C2.83875 13.5394 2.8763 13.6254 2.92961 13.7016C2.98291 13.7778 3.0509 13.8426 3.12959 13.8923C3.20828 13.9419 3.29609 13.9753 3.38786 13.9905C3.47964 14.0058 3.57354 14.0026 3.66407 13.9811C3.75459 13.9596 3.83991 13.9203 3.91503 13.8654C3.99015 13.8106 4.05355 13.7413 4.10153 13.6616C4.14951 13.582 4.18109 13.4935 4.19443 13.4015L4.79582 9.79412H8.27172L7.70856 13.1723C7.69137 13.2637 7.69261 13.3576 7.7122 13.4485C7.73179 13.5394 7.76933 13.6254 7.82264 13.7016C7.87594 13.7778 7.94393 13.8426 8.02262 13.8923C8.10131 13.9419 8.18912 13.9753 8.2809 13.9905C8.37267 14.0058 8.46658 14.0026 8.5571 13.9811C8.64762 13.9596 8.73294 13.9203 8.80806 13.8654C8.88318 13.8106 8.94658 13.7413 8.99456 13.6616C9.04254 13.582 9.07412 13.4935 9.08746 13.4015L9.68885 9.79412H12.592C12.6847 9.79543 12.7766 9.77833 12.8626 9.74381C12.9485 9.70929 13.0268 9.65804 13.0927 9.59304C13.1587 9.52805 13.2111 9.4506 13.2468 9.36519C13.2826 9.27979 13.301 9.18814 13.301 9.09556C13.301 9.00298 13.2826 8.91133 13.2468 8.82592C13.2111 8.74052 13.1587 8.66307 13.0927 8.59807C13.0268 8.53308 12.9485 8.48183 12.8626 8.44731C12.7766 8.41279 12.6847 8.39569 12.592 8.397H9.9223L10.3879 5.60277H13.291C13.3837 5.60408 13.4756 5.58698 13.5616 5.55246C13.6475 5.51794 13.7258 5.46669 13.7917 5.4017C13.8577 5.3367 13.9101 5.25925 13.9458 5.17384C13.9816 5.08844 14 4.99679 14 4.90421C14 4.81163 13.9816 4.71998 13.9458 4.63458C13.9101 4.54917 13.8577 4.47172 13.7917 4.40672C13.7258 4.34173 13.6475 4.29048 13.5616 4.25596C13.4756 4.22144 13.3837 4.20434 13.291 4.20565H10.6213L11.1845 0.827468C11.2039 0.724051 11.1997 0.617588 11.1722 0.516024C11.1446 0.414461 11.0945 0.320421 11.0255 0.240926C10.9566 0.161431 10.8705 0.0985338 10.7738 0.05693C10.6771 0.0153262 10.5722 -0.00390952 10.467 0.000658823ZM5.49482 5.60277H8.97073L8.50518 8.397H5.02927L5.49482 5.60277Z" fill="#646464"/>
</svg>
