<svg width="14" height="16" viewBox="0 0 14 16" fill="none" xmlns="http://www.w3.org/2000/svg">
<path d="M1.4 0C1.0287 0 0.672601 0.160527 0.41005 0.446268C0.1475 0.732008 0 1.11956 0 1.52365C0 1.92775 0.1475 2.3153 0.41005 2.60104C0.672601 2.88678 1.0287 3.04731 1.4 3.04731C1.7713 3.04731 2.1274 2.88678 2.38995 2.60104C2.6525 2.3153 2.8 1.92775 2.8 1.52365C2.8 1.11956 2.6525 0.732008 2.38995 0.446268C2.1274 0.160527 1.7713 0 1.4 0ZM12.6 0C12.2287 0 11.8726 0.160527 11.6101 0.446268C11.3475 0.732008 11.2 1.11956 11.2 1.52365C11.2 1.92775 11.3475 2.3153 11.6101 2.60104C11.8726 2.88678 12.2287 3.04731 12.6 3.04731C12.9713 3.04731 13.3274 2.88678 13.5899 2.60104C13.8525 2.3153 14 1.92775 14 1.52365C14 1.11956 13.8525 0.732008 13.5899 0.446268C13.3274 0.160527 12.9713 0 12.6 0ZM8.42188 2.27506C8.30639 2.27052 8.19166 2.29717 8.08793 2.35262C7.98421 2.40807 7.89471 2.49061 7.82742 2.59286C7.76013 2.69512 7.71715 2.81391 7.70232 2.93864C7.68748 3.06337 7.70124 3.19016 7.74238 3.3077L10.1623 10.5495L4.26973 9.90821C4.17616 9.89343 4.08082 9.89943 3.98944 9.92584C3.89806 9.95225 3.81255 9.99854 3.73806 10.0619C3.66356 10.1253 3.60163 10.2044 3.55601 10.2945C3.51038 10.3846 3.48199 10.4839 3.47257 10.5863C3.46314 10.6886 3.47287 10.792 3.50116 10.8902C3.52946 10.9884 3.57573 11.0793 3.63719 11.1575C3.69865 11.2357 3.77403 11.2995 3.85877 11.3451C3.94352 11.3908 4.03587 11.4172 4.13027 11.4229L11.1303 12.1848C11.248 12.1975 11.3668 12.1775 11.4755 12.1267C11.5843 12.0759 11.6794 11.996 11.752 11.8944C11.8247 11.7927 11.8725 11.6727 11.8909 11.5455C11.9094 11.4183 11.8979 11.2881 11.8576 11.167L9.05762 2.78692C9.0114 2.6418 8.92596 2.51528 8.81251 2.42394C8.69906 2.3326 8.5629 2.28071 8.42188 2.27506ZM3.46172 14.0938C3.28187 14.1038 3.11249 14.1888 2.98876 14.3312C2.86503 14.4736 2.79649 14.6624 2.79737 14.8584C2.79825 15.0544 2.86849 15.2425 2.99348 15.3836C3.11848 15.5246 3.28863 15.6079 3.46855 15.616L11.1686 15.9969C11.2628 16.0062 11.3578 15.9946 11.4478 15.9629C11.5378 15.9311 11.621 15.8798 11.6923 15.8121C11.7636 15.7444 11.8215 15.6617 11.8626 15.5689C11.9037 15.4761 11.927 15.3752 11.9313 15.2724C11.9355 15.1695 11.9206 15.0667 11.8873 14.9703C11.8541 14.8739 11.8032 14.7858 11.7378 14.7114C11.6724 14.637 11.5938 14.5778 11.5068 14.5374C11.4197 14.4969 11.3261 14.4761 11.2314 14.4762L3.53145 14.0953C3.50824 14.0935 3.48497 14.093 3.46172 14.0938Z" fill="#646464"/>
</svg>
